<svg width="264" height="43" fill="none" xmlns="http://www.w3.org/2000/svg"><path d="M56.4 32.22a.97.97 0 01-.655-.255.888.888 0 01-.255-.656V14.191c0-.267.085-.486.255-.656a.97.97 0 01.656-.255h3.387c.267 0 .485.085.655.255.17.17.255.389.255.656v1.238c.51-.68 1.19-1.263 2.04-1.748.874-.486 1.906-.74 3.096-.765 2.792-.049 4.722 1.02 5.79 3.205.56-.947 1.36-1.712 2.405-2.294 1.044-.607 2.197-.911 3.46-.911 1.262 0 2.404.291 3.423.874 1.02.559 1.834 1.433 2.44 2.623.608 1.165.911 2.67.911 4.516v10.38a.831.831 0 01-.291.656.843.843 0 01-.62.255h-3.605a.888.888 0 01-.656-.255.887.887 0 01-.255-.656V21.22c0-.995-.145-1.772-.437-2.33-.267-.56-.643-.96-1.129-1.203a3.068 3.068 0 00-1.566-.4c-.51 0-1.007.133-1.493.4-.462.243-.85.644-1.166 1.202-.291.559-.437 1.336-.437 2.331v10.09a.887.887 0 01-.255.655.843.843 0 01-.619.255h-3.606a.888.888 0 01-.655-.255.887.887 0 01-.255-.656V21.22c0-.995-.146-1.772-.437-2.33-.292-.56-.68-.96-1.166-1.203a2.998 2.998 0 00-1.53-.4c-.51 0-1.007.133-1.493.4-.461.243-.85.644-1.165 1.202-.292.559-.437 1.323-.437 2.295v10.125a.887.887 0 01-.255.656.888.888 0 01-.656.255h-3.678zm38.541.364c-1.287 0-2.44-.243-3.46-.729-1.02-.51-1.833-1.19-2.44-2.04a4.774 4.774 0 01-.91-2.84c0-1.724.692-3.084 2.076-4.08 1.408-.995 3.253-1.675 5.536-2.039l4.771-.692v-.656c0-.947-.219-1.675-.656-2.185-.437-.51-1.202-.765-2.294-.765-.801 0-1.445.158-1.93.474a3.366 3.366 0 00-1.093 1.238c-.194.316-.486.474-.874.474h-3.46c-.267 0-.474-.073-.62-.219a.736.736 0 01-.182-.583c0-.413.158-.898.474-1.457.316-.558.801-1.104 1.457-1.639.655-.558 1.493-1.02 2.513-1.384 1.044-.364 2.294-.546 3.751-.546 1.53 0 2.841.182 3.934.546 1.092.365 1.967.874 2.622 1.53a5.61 5.61 0 011.457 2.295 7.88 7.88 0 01.474 2.768v11.254a.887.887 0 01-.255.656.845.845 0 01-.62.255h-3.605a.845.845 0 01-.62-.255.89.89 0 01-.254-.656v-1.348c-.316.462-.741.899-1.275 1.312-.534.388-1.178.704-1.93.947-.729.242-1.591.364-2.587.364zm1.457-3.788c.802 0 1.518-.17 2.15-.51.63-.34 1.128-.862 1.493-1.566.364-.704.546-1.59.546-2.659v-.62l-3.387.547c-1.287.219-2.234.547-2.841.984-.607.437-.91.97-.91 1.602 0 .462.133.862.4 1.202.291.316.655.57 1.092.765.462.17.947.255 1.457.255zm15.701 3.424a.972.972 0 01-.656-.255.887.887 0 01-.255-.656V14.191c0-.243.085-.45.255-.62a.907.907 0 01.656-.29h3.569c.267 0 .486.096.656.29.17.17.255.377.255.62v1.457a6.165 6.165 0 012.258-1.749c.898-.412 1.918-.619 3.059-.619h1.567c.267 0 .485.085.655.255.17.17.255.389.255.656v3.168c0 .243-.085.45-.255.62a.886.886 0 01-.655.255h-3.169c-1.093 0-1.943.303-2.55.91-.582.607-.874 1.445-.874 2.513v9.652a.832.832 0 01-.291.656.843.843 0 01-.619.255h-3.861zm16.628 0a.886.886 0 01-.655-.255.887.887 0 01-.255-.656V7.271c0-.267.085-.486.255-.656a.886.886 0 01.655-.255h3.57c.242 0 .449.085.619.255.194.17.291.389.291.656v12.31l5.573-5.682c.194-.17.364-.315.51-.437.17-.121.425-.182.765-.182h4.152c.218 0 .4.085.546.255a.69.69 0 01.255.546.886.886 0 01-.073.328.596.596 0 01-.255.292l-7.029 7.066 7.94 9.069c.194.194.291.388.291.582a.87.87 0 01-.219.583c-.145.146-.339.219-.582.219h-4.225c-.364 0-.632-.061-.801-.182a26.71 26.71 0 01-.51-.437l-6.338-7.14v6.848a.832.832 0 01-.291.656.844.844 0 01-.619.255h-3.57zm28.08.364c-2.793 0-5.014-.777-6.666-2.331-1.626-1.554-2.488-3.812-2.586-6.775v-1.529c.098-1.894.522-3.509 1.275-4.845a7.492 7.492 0 013.169-3.095c1.36-.729 2.95-1.093 4.771-1.093 2.064 0 3.776.425 5.136 1.275a7.754 7.754 0 013.059 3.423c.704 1.433 1.056 3.084 1.056 4.954v.837a.97.97 0 01-.255.656.886.886 0 01-.655.255h-11.874v.255c.025.777.17 1.493.437 2.149a3.685 3.685 0 001.166 1.53c.534.388 1.177.582 1.93.582.583 0 1.069-.085 1.457-.255.389-.194.704-.4.947-.619.267-.243.461-.449.583-.619.218-.267.388-.425.51-.473.145-.073.352-.11.619-.11h3.861c.218 0 .4.073.546.219.17.146.243.328.218.546-.024.413-.23.91-.619 1.494-.364.558-.91 1.116-1.639 1.675-.728.534-1.639.983-2.731 1.348-1.069.364-2.307.546-3.715.546zm-3.57-11.619h7.103v-.109c0-.85-.146-1.59-.438-2.222-.267-.655-.667-1.165-1.201-1.53-.535-.364-1.178-.546-1.931-.546-.753 0-1.396.182-1.93.547-.51.364-.911.874-1.202 1.53-.267.63-.401 1.371-.401 2.221v.11zM179.46 32.22c-1.505 0-2.792-.243-3.86-.729a5.313 5.313 0 01-2.404-2.33c-.559-1.045-.838-2.356-.838-3.934v-7.649h-2.841a.886.886 0 01-.655-.255.843.843 0 01-.255-.62v-2.512c0-.267.085-.486.255-.656a.886.886 0 01.655-.255h2.841V7.27c0-.266.085-.485.255-.655a.97.97 0 01.656-.255h3.605c.243 0 .45.085.62.255.17.17.255.389.255.656v6.01h4.552c.267 0 .486.084.656.254.17.17.255.389.255.656v2.513c0 .243-.085.45-.255.62a.889.889 0 01-.656.254h-4.552v7.212c0 .922.17 1.65.51 2.185.339.51.91.765 1.711.765h2.659c.267 0 .486.085.656.255.17.17.255.376.255.619v2.695a.887.887 0 01-.255.656.889.889 0 01-.656.255h-3.169zm8.86 0a.889.889 0 01-.656-.255.887.887 0 01-.255-.656V7.271c0-.267.085-.486.255-.656a.889.889 0 01.656-.255h3.933c.267 0 .486.085.656.255.17.17.255.389.255.656v8.195a6.888 6.888 0 012.367-1.858c.972-.461 2.125-.692 3.46-.692 1.433 0 2.696.328 3.788.983 1.117.632 1.979 1.567 2.586 2.805.632 1.214.947 2.695.947 4.443V31.31a.887.887 0 01-.255.656.886.886 0 01-.655.255h-3.97a.845.845 0 01-.62-.255.89.89 0 01-.254-.656v-9.943c0-1.287-.316-2.282-.947-2.987-.632-.728-1.53-1.092-2.696-1.092-1.141 0-2.051.364-2.731 1.092-.68.704-1.02 1.7-1.02 2.987v9.943a.887.887 0 01-.255.656.889.889 0 01-.656.255h-3.933zm23.953 0a.97.97 0 01-.655-.255.887.887 0 01-.255-.656V14.191c0-.267.085-.486.255-.656a.97.97 0 01.655-.255h3.679c.243 0 .449.085.619.255.17.17.255.389.255.656v17.118a.887.887 0 01-.255.656.843.843 0 01-.619.255h-3.679zm-.109-21.853a.842.842 0 01-.619-.256.887.887 0 01-.255-.655v-2.95c0-.243.085-.45.255-.62a.793.793 0 01.619-.29h3.861c.243 0 .449.096.619.29.194.17.291.377.291.62v2.95a.832.832 0 01-.291.655.842.842 0 01-.619.255h-3.861zm10.868 21.853a.968.968 0 01-.655-.255.887.887 0 01-.255-.656V14.191c0-.267.085-.486.255-.656a.967.967 0 01.655-.255h3.569c.268 0 .486.085.656.255.17.17.255.389.255.656v1.42c.631-.777 1.445-1.42 2.44-1.93 1.02-.51 2.234-.765 3.642-.765 1.433 0 2.696.328 3.788.983 1.093.632 1.943 1.567 2.55 2.805.607 1.214.91 2.695.91 4.443V31.31a.887.887 0 01-.255.656.885.885 0 01-.655.255h-3.861a.886.886 0 01-.655-.255.887.887 0 01-.255-.656v-9.943c0-1.287-.316-2.282-.947-2.987-.607-.728-1.506-1.092-2.696-1.092-1.141 0-2.051.364-2.731 1.092-.656.704-.984 1.7-.984 2.987v9.943a.887.887 0 01-.255.656.886.886 0 01-.655.255h-3.861zm23.813 0a.886.886 0 01-.655-.255.887.887 0 01-.255-.656V7.271c0-.267.085-.486.255-.656a.886.886 0 01.655-.255h3.57c.242 0 .449.085.619.255.194.17.291.389.291.656v12.31l5.573-5.682c.194-.17.364-.315.51-.437.17-.121.424-.182.764-.182h4.153c.218 0 .4.085.546.255a.69.69 0 01.255.546.886.886 0 01-.073.328.596.596 0 01-.255.292l-7.029 7.066 7.94 9.069c.194.194.291.388.291.582a.87.87 0 01-.219.583c-.145.146-.34.219-.582.219h-4.225c-.365 0-.632-.061-.802-.182a30.563 30.563 0 01-.509-.437l-6.338-7.14v6.848a.832.832 0 01-.291.656.844.844 0 01-.619.255h-3.57z" fill="#fff"/><path d="M29.768 38.523a8.755 8.755 0 100-17.51 8.755 8.755 0 000 17.51z" fill="#EDFF81"/><path d="M32.395 15.76a6.129 6.129 0 100-12.258 6.129 6.129 0 000 12.258zM9.683 38.47a6.129 6.129 0 100-12.257 6.129 6.129 0 000 12.258z" fill="#fff"/><path d="M12.258 21.013a8.755 8.755 0 100-17.51 8.755 8.755 0 000 17.51z" fill="#EDFF81"/></svg>